# xmcd
#
# Track frame offsets:
#	150
#	8200
#	18376
#	30941
#	41744
#	52310
#	64032
#	77691
#	86715
#	97671
#	110587
#	121657
#	135914
#	147880
#	159673
#	170124
#
# Disc length: 2409 seconds
#
# Revision: 1
# Processed by: cddbd v1.5.2PL0 Copyright (c) Steve Scherf et al.
# Submitted via: audiograbber 1.83.01
#
DISCID=c8096710
DTITLE=Truck Driving Country - The Country Club Collection
DYEAR=2006
DGENRE=Country
TTITLE0=Johnny Cash - Wreck Of The Old '97 Trad./Arr. Cash
TTITLE1=Dave Dudley - Seven Lonely Days Schovan/Brown
TTITLE2=Red Simpson - Roll Truck Roll Roberts
TTITLE3=Hank Locklin - I Was Coming Home To You Hayes/ Rule Hayes /Rule
TTITLE4=Roger Miller - Burning Bridges Copyright Control
TTITLE5=Merle Travis - Cincinnati Lou 
TTITLE6=Billy Walker - Cross The Brazos At Waco Arnold
TTITLE7=Marty Robbins - It's A Long Long Ride  Robbins
TTITLE8=Frankie Line - North To Alaska  Phillips
TTITLE9=Charlie Rich - I Take It on Home O'dell 
TTITLE10=Johnny Cash - Don't Make Me Go Cash
TTITLE11=Jim Reeves - Highway To Nowhere Hess
TTITLE12=Bob Wills/Texas Playboys - Take Me Back To Tulsa Duncan/Wills
TTITLE13=Bill Haley - Wreck On The Highway  Acuff
TTITLE14=Tex Ritter - Have I Stayed Away Too Long Äoesser
TTITLE15=Johnny Cash - Wide Open Road Cash
EXTD=mcps 402 339
EXTT0=
EXTT1=
EXTT2=
EXTT3=
EXTT4=
EXTT5=
EXTT6=
EXTT7=
EXTT8=
EXTT9=
EXTT10=
EXTT11=
EXTT12=
EXTT13=
EXTT14=
EXTT15=
PLAYORDER=
